<?xml version="1.0" encoding="UTF-8"?>
<svg xmlns="http://www.w3.org/2000/svg" width="200" height="200" viewBox="0 0 200 200">
  <!-- Simple QR code representation -->
  <rect x="0" y="0" width="200" height="200" fill="white"/>
  
  <!-- QR code pattern -->
  <g fill="black">
    <!-- Position detection patterns (corners) -->
    <!-- Top-left corner -->
    <rect x="10" y="10" width="30" height="30"/>
    <rect x="15" y="15" width="20" height="20" fill="white"/>
    <rect x="20" y="20" width="10" height="10"/>
    
    <!-- Top-right corner -->
    <rect x="160" y="10" width="30" height="30"/>
    <rect x="165" y="15" width="20" height="20" fill="white"/>
    <rect x="170" y="20" width="10" height="10"/>
    
    <!-- Bottom-left corner -->
    <rect x="10" y="160" width="30" height="30"/>
    <rect x="15" y="165" width="20" height="20" fill="white"/>
    <rect x="20" y="170" width="10" height="10"/>
    
    <!-- Timing patterns -->
    <rect x="50" y="10" width="10" height="10"/>
    <rect x="70" y="10" width="10" height="10"/>
    <rect x="90" y="10" width="10" height="10"/>
    <rect x="110" y="10" width="10" height="10"/>
    <rect x="130" y="10" width="10" height="10"/>
    
    <rect x="10" y="50" width="10" height="10"/>
    <rect x="10" y="70" width="10" height="10"/>
    <rect x="10" y="90" width="10" height="10"/>
    <rect x="10" y="110" width="10" height="10"/>
    <rect x="10" y="130" width="10" height="10"/>
    
    <!-- Data modules (simplified pattern) -->
    <rect x="50" y="50" width="10" height="10"/>
    <rect x="70" y="50" width="10" height="10"/>
    <rect x="90" y="50" width="10" height="10"/>
    <rect x="110" y="50" width="10" height="10"/>
    
    <rect x="50" y="70" width="10" height="10"/>
    <rect x="90" y="70" width="10" height="10"/>
    <rect x="130" y="70" width="10" height="10"/>
    
    <rect x="70" y="90" width="10" height="10"/>
    <rect x="110" y="90" width="10" height="10"/>
    <rect x="150" y="90" width="10" height="10"/>
    
    <rect x="50" y="110" width="10" height="10"/>
    <rect x="90" y="110" width="10" height="10"/>
    <rect x="130" y="110" width="10" height="10"/>
    
    <rect x="70" y="130" width="10" height="10"/>
    <rect x="110" y="130" width="10" height="10"/>
    <rect x="150" y="130" width="10" height="10"/>
    
    <rect x="50" y="150" width="10" height="10"/>
    <rect x="70" y="150" width="10" height="10"/>
    <rect x="90" y="150" width="10" height="10"/>
    <rect x="130" y="150" width="10" height="10"/>
    <rect x="150" y="150" width="10" height="10"/>
    
    <rect x="50" y="170" width="10" height="10"/>
    <rect x="90" y="170" width="10" height="10"/>
    <rect x="110" y="170" width="10" height="10"/>
    <rect x="130" y="170" width="10" height="10"/>
    <rect x="170" y="170" width="10" height="10"/>
  </g>
  
  <!-- Text label -->
  <text x="100" y="195" font-family="Arial" font-size="8" text-anchor="middle" fill="black">Scan to download Super Ghana</text>
</svg>
